<svg width="352" height="349" viewBox="0 0 352 349" fill="none" xmlns="http://www.w3.org/2000/svg">
<path d="M346.341 229.856H242.016V120.143H346.341C349.466 120.143 351.999 117.613 351.999 114.491C351.999 111.369 349.466 108.839 346.341 108.839H242.016V5.65202C242.016 2.5299 239.482 0 236.357 0C233.232 0 230.699 2.5299 230.699 5.65202V108.839H120.856V5.65202C120.856 2.5299 118.322 0 115.197 0C112.072 0 109.539 2.5299 109.539 5.65202V108.839H5.65868C2.53362 108.839 0 111.369 0 114.491C0 117.613 2.53362 120.143 5.65868 120.143H109.539V229.857H5.65868C2.53362 229.857 0 232.387 0 235.509C0 238.631 2.53362 241.161 5.65868 241.161H109.539V343.348C109.539 346.47 112.072 349 115.197 349C118.322 349 120.856 346.47 120.856 343.348V241.16H159.511C162.636 241.16 165.169 238.63 165.169 235.508C165.169 232.386 162.636 229.856 159.511 229.856H120.856V120.143H230.699V229.856H157.236C154.111 229.856 151.577 232.386 151.577 235.508C151.577 238.63 154.111 241.16 157.236 241.16H230.699V343.347C230.699 346.469 233.232 348.999 236.357 348.999C239.482 348.999 242.016 346.469 242.016 343.347V241.16H346.341C349.466 241.16 352 238.63 352 235.508C352 232.386 349.466 229.856 346.341 229.856Z" fill="black"/>
</svg>
