<svg width="233" height="233" viewBox="0 0 233 233" fill="none" xmlns="http://www.w3.org/2000/svg">
<rect x="8" y="16" width="210" height="209" rx="11" fill="#C9F9FC" stroke="black" stroke-width="10"/>
<rect x="11" y="11" width="212" height="211" rx="12" fill="#C9F9FC" stroke="black" stroke-width="8"/>
<path d="M177.009 55.4C163.235 40.744 143.909 33 121.116 33C104.039 33 88.929 37.589 76.581 46.364C68.2751 50.5279 60.8946 56.3245 54.881 63.407C42.705 77.66 36 96.816 36 117.345C36 166.336 66.813 199.252 112.674 199.252C130.182 199.252 145.527 194.636 157.92 185.809C166.339 181.605 173.79 175.692 179.796 168.447C191.518 154.376 197.974 135.361 197.974 114.904C197.976 90.57 190.726 69.994 177.009 55.4ZM121.677 181.817C81.863 181.817 57.005 153.591 57.005 111.91C57.005 90.51 65.541 69.425 82.638 56.81C91.8473 52.465 101.928 50.2834 112.11 50.432C151.362 50.432 176.97 76.785 176.97 120.339C176.97 141.352 169.037 162.654 151.811 175.41C143.428 179.459 133.427 181.817 121.677 181.817Z" fill="black"/>
<path d="M121.677 75.462C113.821 75.462 107.367 77.985 102.477 82.544C89.64 87.049 82.577 100.511 82.577 119.21C82.577 140.147 93.977 156.594 111.921 156.594C119.967 156.594 126.286 154.109 130.969 149.622C144.069 145.193 150.269 131.499 150.269 112.47C150.276 87.426 138.312 75.462 121.677 75.462ZM120.929 139.162C109.011 139.162 103.583 126.004 103.583 113.778C103.583 105.033 105.483 97.734 108.939 93.225V93.22C110.17 92.9995 111.418 92.8903 112.669 92.894C123.683 92.894 129.269 101.308 129.269 117.901C129.269 128.707 127.204 135.137 124.43 138.964C123.269 139.116 122.099 139.182 120.929 139.162Z" fill="black"/>
<path d="M185.974 114.982C185.974 148.064 166.347 181.895 121.674 181.895C81.86 181.895 57.002 153.669 57.002 111.988C57.002 78.158 78.311 45.075 121.113 45.075C160.366 45.075 185.974 71.429 185.974 114.982ZM121.674 75.54C102.422 75.54 91.58 90.68 91.58 113.856C91.58 134.794 102.98 151.24 120.926 151.24C140.926 151.24 150.272 135.914 150.272 112.548C150.273 87.504 138.31 75.54 121.675 75.54H121.674Z" fill="#FCD015"/>
<path d="M121.266 181.895C112.1 182 103.002 180.298 94.494 176.886C86.7706 173.725 79.8364 168.906 74.182 162.768C68.4289 156.434 64.0264 148.994 61.243 140.903C58.1304 131.811 56.5591 122.263 56.594 112.653H91.182C91.176 113.032 91.172 113.437 91.172 113.853C91.1405 118.819 91.8352 123.762 93.234 128.527C94.4727 132.802 96.4646 136.821 99.116 140.396C101.566 143.701 104.726 146.415 108.362 148.339C112.118 150.277 116.29 151.273 120.517 151.239C125.005 151.325 129.454 150.383 133.523 148.487C137.176 146.693 140.32 144.011 142.668 140.687C145.215 137.003 147.049 132.875 148.074 128.515C149.316 123.321 149.917 117.994 149.864 112.653H185.541C185.558 113.44 185.566 114.224 185.566 114.982C185.567 119.124 185.256 123.26 184.635 127.355C184.017 131.438 183.069 135.463 181.801 139.393C179.33 147.221 175.381 154.503 170.168 160.844C164.743 167.38 157.9 172.594 150.159 176.092C141.054 180.071 131.201 182.05 121.266 181.895Z" fill="#FBB500"/>
<path d="M121.268 184.895C101.013 184.895 83.902 177.875 71.785 164.595C59.885 151.551 53.596 133.361 53.596 111.989C53.596 78.317 74.596 42.076 120.707 42.076C140.953 42.076 158.012 48.842 170.042 61.642C182.161 74.542 188.566 92.982 188.566 114.984C188.566 133.34 182.851 150.309 172.474 162.766C160.413 177.242 142.706 184.895 121.268 184.895ZM120.707 48.075C78.719 48.075 59.596 81.206 59.596 111.988C59.596 152.632 83.803 178.895 121.268 178.895C163.612 178.895 182.568 146.795 182.568 114.983C182.566 73.713 158.863 48.075 120.707 48.075ZM120.52 154.24C101.475 154.24 88.174 137.633 88.174 113.856C88.174 88.371 100.854 72.54 121.268 72.54C141.054 72.54 152.868 87.496 152.868 112.548C152.866 139.044 141.076 154.24 120.52 154.24ZM121.268 78.54C104.302 78.54 94.174 91.74 94.174 113.856C94.174 134.101 105.008 148.24 120.52 148.24C132.539 148.24 146.866 142.048 146.866 112.548C146.866 90.935 137.536 78.54 121.268 78.54Z" fill="#FCD015"/>
</svg>
